<svg xmlns="http://www.w3.org/2000/svg" fill="none" viewBox="0 0 681 259">
  <path fill="#000"
    d="M260.572 130.04V162h-12.856V89.273h12.571v27.45h.64c1.278-3.078 3.255-5.504 5.93-7.28 2.699-1.799 6.132-2.699 10.298-2.699 3.788 0 7.091.793 9.908 2.38 2.817 1.586 4.995 3.906 6.534 6.96 1.563 3.054 2.344 6.782 2.344 11.186V162h-12.855v-32.741c0-3.67-.947-6.523-2.841-8.559-1.87-2.059-4.498-3.089-7.884-3.089-2.272 0-4.308.497-6.108 1.491-1.775.971-3.172 2.38-4.19 4.226-.994 1.847-1.491 4.084-1.491 6.712Zm72.265 33.025c-5.327 0-9.943-1.172-13.849-3.515-3.907-2.344-6.937-5.623-9.091-9.837-2.131-4.214-3.196-9.138-3.196-14.773 0-5.634 1.065-10.57 3.196-14.808 2.154-4.238 5.184-7.528 9.091-9.872 3.906-2.344 8.522-3.516 13.849-3.516s9.943 1.172 13.85 3.516c3.906 2.344 6.924 5.634 9.055 9.872 2.154 4.238 3.232 9.174 3.232 14.808 0 5.635-1.078 10.559-3.232 14.773-2.131 4.214-5.149 7.493-9.055 9.837-3.907 2.343-8.523 3.515-13.85 3.515Zm.071-10.298c2.888 0 5.303-.793 7.245-2.379 1.941-1.61 3.385-3.764 4.332-6.463.971-2.699 1.456-5.706 1.456-9.02 0-3.338-.485-6.357-1.456-9.056-.947-2.722-2.391-4.888-4.332-6.498-1.942-1.61-4.357-2.415-7.245-2.415-2.959 0-5.421.805-7.386 2.415-1.941 1.61-3.397 3.776-4.368 6.498-.947 2.699-1.421 5.718-1.421 9.056 0 3.314.474 6.321 1.421 9.02.971 2.699 2.427 4.853 4.368 6.463 1.965 1.586 4.427 2.379 7.386 2.379Zm36.976 29.688v-75h12.642v9.019h.746c.663-1.325 1.598-2.734 2.806-4.225 1.207-1.516 2.841-2.806 4.9-3.871 2.06-1.089 4.688-1.634 7.884-1.634 4.214 0 8.013 1.077 11.399 3.232 3.409 2.131 6.108 5.291 8.096 9.481 2.013 4.167 3.019 9.281 3.019 15.341 0 5.99-.983 11.08-2.948 15.27-1.965 4.191-4.64 7.387-8.025 9.588-3.386 2.202-7.221 3.303-11.506 3.303-3.125 0-5.717-.521-7.777-1.563-2.059-1.041-3.717-2.296-4.971-3.764-1.231-1.491-2.19-2.9-2.877-4.226h-.532v29.049h-12.856Zm12.607-47.728c0 3.528.497 6.617 1.491 9.269 1.018 2.651 2.474 4.723 4.368 6.214 1.918 1.468 4.238 2.202 6.961 2.202 2.84 0 5.22-.758 7.137-2.273 1.918-1.539 3.362-3.634 4.333-6.285.994-2.675 1.491-5.718 1.491-9.127 0-3.385-.485-6.392-1.456-9.02-.97-2.627-2.415-4.687-4.332-6.179-1.918-1.491-4.309-2.237-7.173-2.237-2.747 0-5.079.722-6.996 2.166-1.918 1.445-3.374 3.469-4.368 6.073-.971 2.604-1.456 5.67-1.456 9.197Zm77.521-27.272v9.943h-32.244v-9.943h32.244ZM435.829 162v-59.695c0-3.67.758-6.723 2.273-9.162 1.539-2.438 3.598-4.26 6.179-5.468 2.58-1.208 5.445-1.811 8.593-1.811 2.226 0 4.203.177 5.931.532 1.728.355 3.006.675 3.835.96l-2.557 9.942a22.265 22.265 0 0 0-2.059-.497c-.829-.19-1.752-.284-2.77-.284-2.391 0-4.084.58-5.078 1.74-.971 1.136-1.456 2.77-1.456 4.901V162h-12.891Zm34.251 0v-54.545h12.855V162H470.08Zm6.463-62.287c-2.036 0-3.788-.675-5.256-2.024-1.468-1.373-2.202-3.018-2.202-4.936 0-1.941.734-3.587 2.202-4.936 1.468-1.373 3.22-2.06 5.256-2.06 2.059 0 3.811.687 5.255 2.06 1.468 1.35 2.202 2.995 2.202 4.936 0 1.918-.734 3.563-2.202 4.936-1.444 1.35-3.196 2.024-5.255 2.024Zm43.759 63.352c-5.469 0-10.192-1.136-14.169-3.409-3.954-2.296-6.996-5.54-9.127-9.73-2.13-4.214-3.196-9.174-3.196-14.879 0-5.611 1.066-10.535 3.196-14.773 2.155-4.261 5.161-7.576 9.02-9.943 3.859-2.391 8.393-3.587 13.601-3.587 3.362 0 6.534.545 9.517 1.634a21.508 21.508 0 0 1 7.955 4.971c2.32 2.249 4.143 5.114 5.468 8.594 1.326 3.457 1.989 7.576 1.989 12.358v3.942h-44.709v-8.665h32.386c-.023-2.462-.556-4.652-1.598-6.569-1.041-1.942-2.497-3.469-4.367-4.581-1.847-1.113-4.001-1.669-6.463-1.669-2.628 0-4.937.639-6.925 1.917a13.205 13.205 0 0 0-4.652 4.972c-1.089 2.036-1.646 4.273-1.669 6.711v7.564c0 3.173.58 5.895 1.74 8.168 1.16 2.249 2.782 3.977 4.865 5.185 2.083 1.183 4.522 1.775 7.315 1.775 1.87 0 3.563-.26 5.078-.781 1.516-.545 2.829-1.338 3.942-2.379 1.113-1.042 1.953-2.332 2.521-3.871l12.003 1.349c-.757 3.173-2.201 5.943-4.332 8.31-2.107 2.344-4.806 4.167-8.097 5.469-3.29 1.278-7.055 1.917-11.292 1.917Zm47.984-73.792V162h-12.855V89.273h12.855Zm33.461 73.686c-4.285 0-8.12-1.101-11.506-3.303-3.385-2.201-6.06-5.397-8.025-9.588-1.965-4.19-2.948-9.28-2.948-15.27 0-6.06.995-11.174 2.983-15.341 2.013-4.19 4.723-7.35 8.132-9.481 3.409-2.155 7.209-3.232 11.399-3.232 3.197 0 5.824.545 7.884 1.634 2.06 1.065 3.693 2.355 4.901 3.871 1.207 1.491 2.142 2.9 2.805 4.225h.533V89.273h12.89V162h-12.642v-8.594h-.781c-.663 1.326-1.622 2.735-2.876 4.226-1.255 1.468-2.912 2.723-4.972 3.764-2.06 1.042-4.652 1.563-7.777 1.563Zm3.587-10.547c2.722 0 5.042-.734 6.96-2.202 1.917-1.491 3.373-3.563 4.368-6.214.994-2.652 1.491-5.741 1.491-9.269 0-3.527-.497-6.593-1.491-9.197-.971-2.604-2.415-4.628-4.333-6.073-1.894-1.444-4.225-2.166-6.995-2.166-2.865 0-5.256.746-7.174 2.237-1.917 1.492-3.361 3.552-4.332 6.179-.971 2.628-1.456 5.635-1.456 9.02 0 3.409.485 6.452 1.456 9.127.994 2.651 2.45 4.746 4.368 6.285 1.941 1.515 4.32 2.273 7.138 2.273Z" />
  <path fill="#000"
    d="M114.96 42.893c-20.248 0-27.787 3.892-27.787 14.272 0 1.633.581 4.055 3.135 6.27 4.864 4.245 15.137 5.743 22.275 4.757 20.919-2.906 31.842 1.948 38.707 7.464-3.297 3.404-4.581 6.46-5.515 8.864-.768 2-1.163 3.041-2.27 4-3.419 2.962-7.923 1.557-16.11-1.405-6.422-2.325-14.341-5.19-23.68-5.19-21.355 0-38.627 14.91-42.492 35.251-2.692-1.692-6.041-2.595-9.515-2.595-9.664 0-16.435 6.646-16.435 16.217 0 4.338 2.702 8.663 7.027 11.352 5.26 3.273 12.124 3.598 19.137.976 5.502 8.096 16.705 10.013 20.653 10.701.363.069.637.083.758.111 1.325.377 2.93.623 4.647.865 3.044.429 8.65 1.242 8.65 3.135 0 1.93-1.433 3.487-3.782 5.73-2.408 2.269-5.083 4.809-5.083 8.757 0 10.058 11.626 11.11 17.84 11.677 1.65.149 3.259.312 4.003.544 12.446 3.837 15.663 8.539 20.974 16.324l.758 1.083c4.609 6.729 13.044 10.487 19.352 10.487 1.287 0 2.515-.107 3.571-.432 3.283-1.014 5.19-3.582 5.19-6.813 0-13.003-7.436-21.961-16.113-28.002-5.633-3.934-11.837-6.571-16.757-8.328 5.079-4.014 7.446-10.124 8.432-15.57.162-.945.232-1.903.325-2.81.041-.366.173-.73.218-1.083.104-1.28.093-2.498.104-3.674v-.976c-.253-17.013-11.055-23.355-15.352-25.839a3.473 3.473 0 0 1-1.645-2.107 3.467 3.467 0 0 1 .347-2.651c.976-1.678 3.163-2.231 4.868-1.297 18.041 9.961 23.947 30.87 14.273 53.305-.958-.53.945.474 0 0 20.068-15.1 28.299-33.493 28.434-50.063 3.841 1.623 8.027 2.609 12.653 2.92 6.581.46 14.785-1.799 17.19-6.38 3.944-7.543 1.692-22.179-1.08-27.248-5.961-10.92-15.667-16.286-29.521-16.328-10.293-16.915-35.894-26.268-50.384-26.268v-.003Zm67.47 48.547a5.19 5.19 0 1 1 0 10.381 5.19 5.19 0 0 1 0-10.381Z" />
</svg>