<svg xmlns="http://www.w3.org/2000/svg" fill="none" width="32" height="32" viewBox="0 0 259 259">
  <style>
    path {
    fill: black;
    }
    @media (prefers-color-scheme: dark) {
    path {
    fill: white;
    }
    }
</style>
  <path
    d="M134.68-.16c-30.313 0-41.6 5.827-41.6 21.367 0 2.445.87 6.07 4.692 9.386 7.284 6.356 22.663 8.599 33.349 7.123 31.319-4.352 47.672 2.916 57.949 11.173-4.937 5.097-6.858 9.67-8.257 13.271-1.15 2.994-1.74 4.553-3.398 5.988-5.118 4.434-11.862 2.331-24.118-2.103-9.614-3.481-21.471-7.77-35.452-7.77-31.971 0-57.83 22.32-63.616 52.774-4.03-2.533-9.044-3.885-14.245-3.885-14.467 0-24.605 9.951-24.605 24.278 0 6.496 4.046 12.971 10.521 16.996 7.874 4.9 18.15 5.387 28.65 1.461 8.237 12.121 25.01 14.991 30.92 16.022.544.103.953.124 1.134.165 1.984.565 4.388.933 6.957 1.295 4.558.643 12.95 1.86 12.95 4.693 0 2.891-2.144 5.222-5.662 8.578-3.605 3.399-7.609 7.201-7.609 13.111 0 15.058 17.405 16.633 26.708 17.483 2.471.222 4.88.466 5.993.813 18.633 5.744 23.45 12.784 31.401 24.439l1.135 1.621c6.9 10.076 19.529 15.701 28.972 15.701 1.927 0 3.766-.161 5.345-.648 4.916-1.517 7.77-5.361 7.77-10.199 0-19.466-11.131-32.877-24.123-41.922-8.433-5.889-17.721-9.837-25.087-12.468 7.605-6.009 11.148-15.157 12.624-23.31.244-1.414.347-2.849.487-4.206.062-.549.259-1.093.326-1.621.156-1.917.14-3.74.156-5.502v-1.46c-.378-25.47-16.55-34.965-22.984-38.685a5.186 5.186 0 0 1-2.463-3.154 5.18 5.18 0 0 1 .521-3.968c1.46-2.512 4.734-3.341 7.288-1.943 27.008 14.914 35.851 46.216 21.367 79.803-1.435-.792 1.414.71 0 0 30.044-22.605 42.368-50.142 42.57-74.949 5.749 2.429 12.017 3.906 18.943 4.372 9.852.689 22.134-2.694 25.734-9.552 5.905-11.292 2.533-33.204-1.616-40.792-8.925-16.349-23.455-24.383-44.196-24.445C194.701 13.846 156.374-.155 134.68-.155v-.006Zm101.01 72.68a7.769 7.769 0 0 1 5.494 13.264 7.769 7.769 0 1 1-10.988-10.988 7.769 7.769 0 0 1 5.494-2.276Z" />
</svg>